<svg width="140" height="121" viewBox="0 0 140 121" fill="none" xmlns="http://www.w3.org/2000/svg">
<path d="M4.26592 120.948L16.5274 108.091H45.9311L57.4783 120.948H4.26592ZM0.694622 62.4977L13.5513 74.8782V104.044L0.694622 115.71V62.4977ZM61.2877 115.71L48.431 103.449V74.164L61.2877 62.4977V115.71ZM14.5036 66.7833C11.726 64.5612 8.90861 62.3787 6.05157 60.2359L14.5036 53.9266H47.0025L55.3355 60.2359L47.0025 66.7833H14.5036ZM4.14688 0H57.3592L45.574 12.8567H16.4083L4.14688 0ZM0.337494 58.3312V5.11886L13.1942 16.6661V46.1888L0.337494 58.3312ZM60.9305 5.11886V58.3312L48.0739 46.784V17.3803L60.9305 5.11886Z" fill="#00DB7F"/>
<path d="M82.6602 120.948L94.9216 108.091H124.325L135.873 120.948H82.6602ZM79.0889 62.4977L91.9456 74.8782V104.044L79.0889 115.71V62.4977ZM139.682 115.71L126.825 103.449V74.164L139.682 62.4977V115.71ZM92.8979 66.7833C90.1202 64.5612 87.3029 62.3787 84.4458 60.2359L92.8979 53.9266H125.397L133.73 60.2359L125.397 66.7833H92.8979ZM82.5411 0H135.753L123.968 12.8567H94.8026L82.5411 0ZM78.7318 58.3312V5.11886L91.5884 16.6661V46.1888L78.7318 58.3312ZM139.325 5.11886V58.3312L126.468 46.784V17.3803L139.325 5.11886Z" fill="#00DB7F"/>
</svg>
